<?xml version="1.0" encoding="utf-8"?>
<!-- Generator: Adobe Illustrator 26.0.2, SVG Export Plug-In . SVG Version: 6.00 Build 0)  -->
<svg version="1.1" xmlns="http://www.w3.org/2000/svg" xmlns:xlink="http://www.w3.org/1999/xlink" x="0px" y="0px"
	 viewBox="0 0 90 30" style="enable-background:new 0 0 90 30;" xml:space="preserve">
<style type="text/css">
	.st0{fill:#FFFFFF;}
	.st1{clip-path:url(#SVGID_00000124840319987975617320000013649026896949452418_);}
	.st2{clip-path:url(#SVGID_00000062152804657046900700000003091423309862905473_);}
	.st3{clip-path:url(#SVGID_00000137819705675716388550000004145671145907466885_);}
	.st4{clip-path:url(#SVGID_00000029764725455411378060000015313425846295555211_);}
	.st5{clip-path:url(#SVGID_00000164473052159372355870000015593537492627888549_);}
	.st6{clip-path:url(#SVGID_00000047048851506644126410000000653479495777225872_);}
	.st7{clip-path:url(#SVGID_00000065792439695877938260000003439963378562943626_);}
	.st8{clip-path:url(#SVGID_00000070079992693031492740000018440970671596445858_);}
	.st9{clip-path:url(#SVGID_00000016784143068561049440000017743129818129770631_);}
</style>
<g id="Guides">
</g>
<g id="Image">
</g>
<g id="Paths">
	<path class="st0" d="M33.7,8.4c0,0.1,0,0.2-0.1,0.3c-0.1,0.1-0.2,0.1-0.3,0.1c-0.1,0-0.2,0-0.3-0.1c-0.1-0.1-0.1-0.2-0.1-0.3
		c0-0.1,0-0.2,0.1-0.3C33.1,8,33.2,8,33.3,8c0.1,0,0.2,0,0.3,0.1C33.7,8.2,33.7,8.3,33.7,8.4 M33.7,8.4c0-0.1,0-0.2-0.1-0.3
		S33.4,8,33.3,8c-0.1,0-0.2,0-0.3,0.1c-0.1,0.1-0.1,0.2-0.1,0.3c0,0.1,0,0.2,0.1,0.3c0.1,0.1,0.2,0.1,0.3,0.1c0.1,0,0.2,0,0.3-0.1
		C33.7,8.6,33.7,8.5,33.7,8.4 M33.5,8.7L33.5,8.7l-0.2-0.1c0-0.1-0.1-0.1-0.1-0.1h-0.1v0.2h-0.1V8.1h0.2c0.1,0,0.1,0,0.2,0
		c0,0,0,0.1,0,0.1c0,0,0,0.1,0,0.1c0,0-0.1,0-0.1,0.1v0c0,0,0.1,0,0.1,0.1L33.5,8.7z M33.4,8.3C33.4,8.3,33.4,8.2,33.4,8.3
		c0-0.1-0.1-0.1-0.1-0.1h-0.1v0.2h0.1C33.4,8.4,33.4,8.4,33.4,8.3"/>
	<path class="st0" d="M22,9.9h-0.3V8.4c0-0.1,0-0.3,0-0.4h0c0,0.1,0,0.2-0.1,0.2l-0.8,1.7h-0.1L20,8.2c0,0,0-0.1-0.1-0.2h0
		c0,0.1,0,0.2,0,0.4v1.5h-0.3V7.7h0.3l0.7,1.6c0.1,0.1,0.1,0.2,0.1,0.3h0c0-0.1,0.1-0.2,0.1-0.3l0.7-1.6H22"/>
	<path class="st0" d="M22.9,7.7c0,0,0,0.1,0,0.1c0,0-0.1,0-0.1,0c0,0-0.1,0-0.1,0c0,0,0-0.1,0-0.1c0,0,0-0.1,0-0.1c0,0,0.1,0,0.1,0
		c0,0,0.1,0,0.1,0C22.9,7.7,22.9,7.7,22.9,7.7 M22.8,8.3v1.6h-0.3V8.3H22.8z"/>
	<path class="st0" d="M24.4,9.9C24.3,9.9,24.2,10,24,10c-0.2,0-0.4-0.1-0.6-0.2c-0.1-0.1-0.2-0.3-0.2-0.6c0-0.3,0.1-0.5,0.2-0.6
		c0.2-0.2,0.4-0.2,0.6-0.2c0.1,0,0.3,0,0.4,0.1v0.3c-0.1-0.1-0.2-0.1-0.4-0.1c-0.2,0-0.3,0.1-0.4,0.2c-0.1,0.1-0.2,0.3-0.2,0.5
		c0,0.2,0,0.3,0.1,0.4c0.1,0.1,0.2,0.2,0.4,0.2c0.1,0,0.3,0,0.4-0.1"/>
	<path class="st0" d="M25.7,8.6c0,0-0.1-0.1-0.2-0.1c-0.1,0-0.2,0-0.3,0.1c-0.1,0.1-0.1,0.3-0.1,0.4v0.8h-0.3V8.3h0.3v0.3h0
		c0-0.1,0.1-0.2,0.2-0.3c0.1-0.1,0.2-0.1,0.2-0.1c0.1,0,0.1,0,0.2,0"/>
	<path class="st0" d="M27.4,9.1c0,0.3-0.1,0.5-0.2,0.6C27,9.9,26.8,10,26.6,10c-0.2,0-0.4-0.1-0.6-0.2c-0.1-0.1-0.2-0.3-0.2-0.6
		c0-0.3,0.1-0.5,0.2-0.6c0.1-0.1,0.3-0.2,0.6-0.2c0.2,0,0.4,0.1,0.6,0.2C27.3,8.6,27.4,8.9,27.4,9.1 M27.1,9.1c0-0.2,0-0.4-0.1-0.5
		c-0.1-0.1-0.2-0.2-0.4-0.2c-0.2,0-0.3,0.1-0.4,0.2c-0.1,0.1-0.2,0.3-0.2,0.5c0,0.2,0,0.3,0.1,0.5c0.1,0.1,0.2,0.2,0.4,0.2
		c0.2,0,0.3-0.1,0.4-0.2C27.1,9.5,27.1,9.3,27.1,9.1"/>
	<path class="st0" d="M28.6,9.5c0,0.1,0,0.2-0.1,0.3c-0.1,0.1-0.3,0.1-0.4,0.1c-0.2,0-0.3,0-0.4-0.1V9.6c0.1,0.1,0.3,0.2,0.4,0.2
		c0.2,0,0.3-0.1,0.3-0.2c0-0.1,0-0.1-0.1-0.2c0,0-0.1-0.1-0.3-0.1c-0.1-0.1-0.2-0.1-0.3-0.2c-0.1-0.1-0.1-0.2-0.1-0.3
		c0-0.1,0.1-0.2,0.2-0.3c0.1-0.1,0.2-0.1,0.4-0.1c0.1,0,0.2,0,0.3,0.1v0.3c-0.1-0.1-0.2-0.1-0.4-0.1c-0.1,0-0.2,0-0.2,0.1
		c-0.1,0-0.1,0.1-0.1,0.2c0,0.1,0,0.1,0.1,0.2c0,0,0.1,0.1,0.2,0.1c0.1,0.1,0.2,0.1,0.3,0.2C28.6,9.3,28.6,9.4,28.6,9.5"/>
	<path class="st0" d="M30.5,9.1c0,0.3-0.1,0.5-0.2,0.6c-0.1,0.2-0.3,0.2-0.6,0.2c-0.2,0-0.4-0.1-0.6-0.2c-0.1-0.1-0.2-0.3-0.2-0.6
		c0-0.3,0.1-0.5,0.2-0.6c0.1-0.1,0.3-0.2,0.6-0.2c0.2,0,0.4,0.1,0.6,0.2C30.4,8.6,30.5,8.9,30.5,9.1 M30.2,9.1c0-0.2,0-0.4-0.1-0.5
		c-0.1-0.1-0.2-0.2-0.4-0.2c-0.2,0-0.3,0.1-0.4,0.2c-0.1,0.1-0.2,0.3-0.2,0.5c0,0.2,0,0.3,0.1,0.5c0.1,0.1,0.2,0.2,0.4,0.2
		c0.2,0,0.3-0.1,0.4-0.2C30.2,9.5,30.2,9.3,30.2,9.1"/>
	<path class="st0" d="M31.6,7.8c-0.1,0-0.1,0-0.2,0c-0.2,0-0.3,0.1-0.3,0.3v0.2h0.4v0.2h-0.4v1.4h-0.3V8.5h-0.3V8.3h0.3V8.1
		c0-0.2,0.1-0.3,0.2-0.4c0.1-0.1,0.2-0.1,0.3-0.1c0.1,0,0.1,0,0.2,0"/>
	<path class="st0" d="M32.6,9.9c-0.1,0-0.1,0.1-0.2,0.1C32.1,10,32,9.8,32,9.5v-1h-0.3V8.3H32V7.9c0.1,0,0.2-0.1,0.3-0.1v0.5h0.4
		v0.2h-0.4v0.9c0,0.1,0,0.2,0.1,0.2c0,0,0.1,0.1,0.2,0.1c0.1,0,0.1,0,0.2-0.1"/>
	<path class="st0" d="M22.9,15.3c0,0.5-0.2,0.9-0.5,1.2c-0.4,0.3-0.9,0.5-1.6,0.5c-0.2,0-0.5,0-0.8-0.1c-0.3-0.1-0.5-0.2-0.6-0.2
		v-0.9c0.2,0.2,0.4,0.3,0.7,0.4c0.3,0.1,0.5,0.1,0.8,0.1c0.8,0,1.2-0.3,1.2-0.9c0-0.3-0.1-0.5-0.3-0.7c-0.2-0.2-0.5-0.4-1-0.7
		c-0.5-0.3-0.9-0.6-1.1-0.8c-0.2-0.3-0.3-0.6-0.3-0.9c0-0.5,0.2-0.9,0.5-1.2c0.4-0.3,0.9-0.5,1.5-0.5c0.6,0,1,0.1,1.2,0.2v0.8
		c-0.3-0.3-0.7-0.4-1.3-0.4c-0.4,0-0.7,0.1-0.9,0.3c-0.2,0.2-0.3,0.4-0.3,0.7c0,0.3,0.1,0.5,0.3,0.7c0.2,0.2,0.5,0.4,0.9,0.6
		c0.5,0.3,0.9,0.6,1.1,0.8C22.8,14.6,22.9,15,22.9,15.3"/>
	<path class="st0" d="M27.3,12.4l-2,5.2c-0.4,0.9-0.9,1.4-1.5,1.4c-0.2,0-0.3,0-0.5-0.1v-0.6c0.2,0.1,0.3,0.1,0.4,0.1
		c0.4,0,0.6-0.2,0.8-0.6l0.4-0.8l-1.7-4.4h0.8l1.2,3.4c0,0.1,0.1,0.2,0.1,0.3h0c0-0.1,0-0.2,0.1-0.3l1.3-3.4"/>
	<path class="st0" d="M30.3,15.7c0,0.4-0.1,0.7-0.4,0.9c-0.3,0.3-0.7,0.4-1.2,0.4c-0.4,0-0.8-0.1-1.1-0.3V16
		c0.3,0.3,0.7,0.4,1.2,0.4c0.6,0,0.8-0.2,0.8-0.6c0-0.2-0.1-0.3-0.2-0.4c-0.1-0.1-0.4-0.2-0.7-0.4c-0.4-0.2-0.6-0.3-0.8-0.5
		c-0.2-0.2-0.3-0.5-0.3-0.8c0-0.4,0.1-0.7,0.4-0.9c0.3-0.2,0.7-0.4,1.1-0.4c0.4,0,0.7,0.1,1,0.2v0.7c-0.3-0.2-0.6-0.3-1-0.3
		c-0.2,0-0.4,0.1-0.6,0.2c-0.1,0.1-0.2,0.3-0.2,0.4c0,0.2,0.1,0.4,0.2,0.5c0.1,0.1,0.3,0.2,0.7,0.4c0.4,0.2,0.7,0.3,0.8,0.5
		C30.2,15.1,30.3,15.4,30.3,15.7"/>
	<path class="st0" d="M33.1,16.9C32.9,17,32.7,17,32.4,17c-0.8,0-1.2-0.4-1.2-1.3v-2.6h-0.8v-0.6h0.8v-1.1c0.2-0.1,0.5-0.1,0.7-0.2
		v1.3h1.1v0.6H32v2.5c0,0.3,0.1,0.5,0.2,0.6c0.1,0.1,0.3,0.2,0.5,0.2c0.2,0,0.3,0,0.5-0.1"/>
	<path class="st0" d="M37.3,14.9h-3.1c0,0.5,0.1,0.9,0.4,1.1c0.3,0.3,0.6,0.4,1.1,0.4c0.5,0,1-0.2,1.4-0.5v0.7
		c-0.4,0.3-0.9,0.4-1.5,0.4c-0.6,0-1.1-0.2-1.4-0.6c-0.4-0.4-0.6-1-0.6-1.7c0-0.7,0.2-1.3,0.6-1.7c0.4-0.4,0.9-0.6,1.4-0.6
		c0.6,0,1.1,0.2,1.4,0.6c0.3,0.4,0.5,0.9,0.5,1.5 M36.6,14.2c0-0.4-0.1-0.7-0.3-0.9c-0.2-0.2-0.5-0.4-0.8-0.4
		c-0.3,0-0.6,0.1-0.9,0.4c-0.2,0.2-0.4,0.6-0.4,0.9H36.6z"/>
	<path class="st0" d="M44.4,16.9h-0.7v-2.6c0-0.5-0.1-0.9-0.2-1.1c-0.2-0.2-0.4-0.3-0.7-0.3c-0.3,0-0.6,0.1-0.8,0.4
		c-0.2,0.3-0.3,0.6-0.3,1v2.5h-0.7v-2.6c0-0.9-0.3-1.3-1-1.3c-0.3,0-0.6,0.1-0.8,0.4c-0.2,0.3-0.3,0.6-0.3,1v2.5h-0.7v-4.5h0.7v0.7
		h0c0.3-0.5,0.8-0.8,1.4-0.8c0.3,0,0.6,0.1,0.8,0.3c0.2,0.2,0.4,0.4,0.5,0.7c0.3-0.6,0.8-0.9,1.5-0.9c1,0,1.5,0.6,1.5,1.8"/>
	<path class="st0" d="M51.4,16.6c-0.5,0.2-1,0.4-1.7,0.4c-0.9,0-1.6-0.3-2.1-0.9c-0.5-0.6-0.8-1.3-0.8-2.2c0-1,0.3-1.8,0.9-2.5
		c0.6-0.6,1.3-0.9,2.2-0.9c0.6,0,1.1,0.1,1.5,0.3v0.8c-0.4-0.2-0.9-0.4-1.5-0.4c-0.7,0-1.3,0.2-1.7,0.7c-0.5,0.5-0.7,1.1-0.7,1.9
		c0,0.8,0.2,1.4,0.7,1.8c0.4,0.4,0.9,0.6,1.6,0.6c0.6,0,1.2-0.1,1.6-0.4"/>
	<path class="st0" d="M55.8,14.9h-3.1c0,0.5,0.1,0.9,0.4,1.1c0.3,0.3,0.6,0.4,1.1,0.4c0.5,0,1-0.2,1.4-0.5v0.7
		C55.1,16.9,54.6,17,54,17c-0.6,0-1.1-0.2-1.4-0.6c-0.4-0.4-0.6-1-0.6-1.7c0-0.7,0.2-1.3,0.6-1.7c0.4-0.4,0.9-0.6,1.4-0.6
		c0.6,0,1.1,0.2,1.4,0.6c0.3,0.4,0.5,0.9,0.5,1.5 M55.1,14.2c0-0.4-0.1-0.7-0.3-0.9c-0.2-0.2-0.5-0.4-0.8-0.4
		c-0.3,0-0.6,0.1-0.9,0.4c-0.2,0.2-0.4,0.6-0.4,0.9H55.1z"/>
	<path class="st0" d="M60.3,16.9h-0.7v-2.5c0-0.9-0.3-1.4-1-1.4c-0.4,0-0.7,0.1-0.9,0.4c-0.2,0.3-0.4,0.6-0.4,1v2.5h-0.7v-4.5h0.7
		v0.7h0c0.3-0.6,0.8-0.8,1.5-0.8c0.5,0,0.9,0.2,1.1,0.5c0.3,0.3,0.4,0.8,0.4,1.4"/>
	<path class="st0" d="M63.4,16.9C63.3,17,63,17,62.8,17c-0.8,0-1.2-0.4-1.2-1.3v-2.6h-0.8v-0.6h0.8v-1.1c0.2-0.1,0.5-0.1,0.7-0.2
		v1.3h1.1v0.6h-1.1v2.5c0,0.3,0.1,0.5,0.2,0.6c0.1,0.1,0.3,0.2,0.5,0.2c0.2,0,0.3,0,0.5-0.1"/>
	<path class="st0" d="M67.7,14.9h-3.1c0,0.5,0.1,0.9,0.4,1.1c0.3,0.3,0.6,0.4,1.1,0.4c0.5,0,1-0.2,1.4-0.5v0.7
		C67,16.9,66.4,17,65.8,17c-0.6,0-1.1-0.2-1.4-0.6c-0.4-0.4-0.6-1-0.6-1.7c0-0.7,0.2-1.3,0.6-1.7c0.4-0.4,0.9-0.6,1.4-0.6
		c0.6,0,1.1,0.2,1.4,0.6c0.3,0.4,0.5,0.9,0.5,1.5 M66.9,14.2c0-0.4-0.1-0.7-0.3-0.9c-0.2-0.2-0.5-0.4-0.8-0.4
		c-0.3,0-0.6,0.1-0.9,0.4c-0.2,0.2-0.4,0.6-0.4,0.9H66.9z"/>
	<path class="st0" d="M70.8,13.2c-0.1-0.1-0.3-0.1-0.5-0.1c-0.3,0-0.5,0.1-0.7,0.4c-0.2,0.3-0.3,0.7-0.3,1.2v2.3h-0.7v-4.5h0.7v0.9
		h0c0.1-0.3,0.3-0.6,0.5-0.8c0.2-0.2,0.4-0.2,0.7-0.2c0.2,0,0.3,0,0.4,0.1"/>
	<g>
		<g>
			<defs>
				<rect id="SVGID_1_" x="0" y="14.7" width="11.4" height="10.3"/>
			</defs>
			<clipPath id="SVGID_00000144334829600413211210000000941347199983648164_">
				<use xlink:href="#SVGID_1_"  style="overflow:visible;"/>
			</clipPath>
			<g style="clip-path:url(#SVGID_00000144334829600413211210000000941347199983648164_);">
				<g>
					<defs>
						<path id="SVGID_00000157305087696683828220000015215011830466766512_" d="M11,14.8c0-0.1-0.3,0.1-0.4,0.1
							c0.1,0.6,0.2,1.3,0.2,1.9c-0.6-0.3-1.7-1-2-1.3l-0.2,0.1c0,0,0-0.1,0-0.1l-0.3,0.1c-0.1,0.1-0.1,0,0,0.1
							c0.1,0.8-0.1,1.7-0.3,2.6c-0.6-0.5-1.2-1.2-1.3-1.9c-0.1,0-0.1,0-0.2,0.1c-0.1,0-0.1,0-0.1,0.1c0.3,0.9,0.9,1.6,1.4,2
							c-0.6,0.2-1.2,0.5-1.9,0.7c-0.3,0.1-0.6,0.2-1,0.3c0.4-0.5,1.2-2.1,1.5-3.1l-0.4,0.2c-0.5,1.2-1.2,2.4-1.6,2.9
							c0,0,0,0.1-0.1,0.1c-0.3-0.6-0.4-1.3-0.2-2l0,0c0-0.1-0.4,0.2-0.4,0.2c-0.1,0.1-0.1,0.1-0.1,0.3c0,0.2-0.1,0.4-0.1,0.6
							c0,0.4,0.2,0.8,0.4,1.2c-0.9,0.3-2,0.6-3,0.9c0,0,0-0.1,0-0.1c0.1-0.7,0.9-1.7,1.7-2.1l0.2-0.2l-1.1,0.8
							c-0.5,0.5-1.2,1.2-1.3,1.8c-0.2,1,0.5,1.7,1.3,2.3c0.9,0.6,1.8,0.9,2.8,1.2C5.5,24.7,7.7,25,8.9,25c0.1,0,0.2,0,0.2,0
							s0.1-0.1,0.1-0.1c0.1-0.2,1.5-2.7,1.8-4.9C11.2,18.6,11.4,16.7,11,14.8 M8.6,15.7c0.5,0.3,1.8,1.1,2.2,1.2
							c-0.6,0.4-1.4,0.9-2.6,1.4C8.6,17.2,8.6,16.3,8.6,15.7 M6.1,19.6c0.5-0.2,1-0.4,1.5-0.6c-0.4,0.9-0.8,1.8-1.3,2.6c0,0,0,0,0,0
							c-0.2-0.1-0.4-0.3-0.7-0.4c-0.4-0.3-0.8-0.7-1.2-1.1C5,19.9,5.6,19.8,6.1,19.6 M0.8,21c1-0.2,2-0.5,3-0.7
							C3,21.4,2.4,22.2,2,22.8C1.4,22.4,0.8,21.7,0.8,21 M2.1,22.9c0.6-0.9,1.3-1.7,2-2.5c0.2,0.2,0.3,0.4,0.5,0.6
							c0.3,0.3,0.7,0.6,1.1,0.8c-1.2,0.4-2.4,0.9-3.6,1.3C2.2,23,2.2,23,2.1,22.9 M4.7,24.2c-0.1,0-0.1,0-0.2-0.1
							c-1-0.3-1.5-0.5-2.1-1C2.9,23,5,22.4,6,22.1C5.4,23,4.9,23.8,4.7,24.2C4.7,24.2,4.7,24.2,4.7,24.2 M9,24.9
							c-0.8-0.1-2.5-0.4-3.6-0.6C6.9,24,8,23.8,9.7,23C9.4,23.8,9.1,24.6,9,24.9 M5.1,24.2C5.1,24.2,5.1,24.2,5.1,24.2
							c-0.1,0-0.1,0-0.2,0c0.6-0.7,1.1-1.4,1.6-2.1c1.5,0.6,3,0.7,3.2,0.8C9,23.1,5.3,24.2,5.1,24.2 M10.5,20.3
							c-0.1,0.6-0.4,1.6-0.7,2.5c-1-0.2-2.1-0.5-3-0.9c1-0.4,3.2-1.4,3.8-1.8C10.5,20.1,10.5,20.2,10.5,20.3 M10.6,19.8
							C10,20.2,7.9,21,7,21.3c0.5-0.9,0.9-1.7,1.1-2.5C9.1,19.5,10.2,19.8,10.6,19.8C10.6,19.8,10.6,19.8,10.6,19.8 M10.6,19.7
							c-0.8-0.2-1.6-0.6-2.3-1.1c1.4-0.7,2.4-1.4,2.5-1.5C10.8,18.1,10.7,19,10.6,19.7"/>
					</defs>
					
						<linearGradient id="SVGID_00000080186673301647688490000008326700997677579166_" gradientUnits="userSpaceOnUse" x1="11.2643" y1="19.9095" x2="0.2117" y2="19.9095">
						<stop  offset="5.327789e-09" style="stop-color:#E6E6E6"/>
						<stop  offset="1" style="stop-color:#757575"/>
					</linearGradient>
					
						<use xlink:href="#SVGID_00000157305087696683828220000015215011830466766512_"  style="overflow:visible;fill:url(#SVGID_00000080186673301647688490000008326700997677579166_);"/>
					<clipPath id="SVGID_00000060018205744659008300000006169941620746917307_">
						<use xlink:href="#SVGID_00000157305087696683828220000015215011830466766512_"  style="overflow:visible;"/>
					</clipPath>
					<g style="clip-path:url(#SVGID_00000060018205744659008300000006169941620746917307_);">
						<g>
							<g>
								<defs>
									<rect id="SVGID_00000072971430744120222990000004717286029820257725_" x="0" y="14.7" width="11.4" height="10.3"/>
								</defs>
								<clipPath id="SVGID_00000152248395831673116560000003889107451110311870_">
									<use xlink:href="#SVGID_00000072971430744120222990000004717286029820257725_"  style="overflow:visible;"/>
								</clipPath>
								<g style="clip-path:url(#SVGID_00000152248395831673116560000003889107451110311870_);">
								</g>
							</g>
						</g>
					</g>
				</g>
			</g>
		</g>
	</g>
	<g>
		<g>
			<defs>
				<rect id="SVGID_00000072239129815859971270000017292288502284075655_" x="3.2" y="5.3" width="6.1" height="3.6"/>
			</defs>
			<clipPath id="SVGID_00000128478567496980476790000006033993785035201460_">
				<use xlink:href="#SVGID_00000072239129815859971270000017292288502284075655_"  style="overflow:visible;"/>
			</clipPath>
			<g style="clip-path:url(#SVGID_00000128478567496980476790000006033993785035201460_);">
				<g>
					<defs>
						<path id="SVGID_00000060718700506673211030000010193381218380401836_" d="M4,8C3.6,7.7,4,7.3,4.3,7.1C4.4,7,4.5,7,4.6,6.9
							c0.3,0.4,1.1,1.3,1.3,1.6l0.5,0C6.2,8.2,5,7.1,4.7,6.8c0,0,0,0,0,0C5.3,7,7.1,7.4,8.1,7.4c0,0,0,0,0,0c-0.3,0.2-1,0.5-1.6,0.9
							l0.4,0.1c0.5-0.3,0.9-0.5,1.3-0.9C8.3,8,8.6,8.4,8.8,8.8l0.4,0C8.5,7.5,7.9,6.3,7.6,5.3C7.1,5.5,4,6.5,3.4,7.3
							C3.2,7.6,3.8,7.9,4,8 M7.6,5.4C7.6,6,7.8,6.6,8,7.2C7.3,7,5.5,6.8,4.9,6.7C6,6,7.4,5.5,7.6,5.4"/>
					</defs>
					
						<linearGradient id="SVGID_00000155148229493643994230000013373013360518593934_" gradientUnits="userSpaceOnUse" x1="3.3528" y1="7.0898" x2="9.2593" y2="7.0898">
						<stop  offset="0" style="stop-color:#757575"/>
						<stop  offset="1" style="stop-color:#E6E6E6"/>
					</linearGradient>
					
						<use xlink:href="#SVGID_00000060718700506673211030000010193381218380401836_"  style="overflow:visible;fill:url(#SVGID_00000155148229493643994230000013373013360518593934_);"/>
					<clipPath id="SVGID_00000108310042024009783690000001880951036053392571_">
						<use xlink:href="#SVGID_00000060718700506673211030000010193381218380401836_"  style="overflow:visible;"/>
					</clipPath>
					<g style="clip-path:url(#SVGID_00000108310042024009783690000001880951036053392571_);">
						<g>
							<g>
								<defs>
									<rect id="SVGID_00000063630198841210268270000017034589481211637164_" x="3.2" y="5.3" width="6.1" height="3.6"/>
								</defs>
								<clipPath id="SVGID_00000114788693118853246350000010468454793231860886_">
									<use xlink:href="#SVGID_00000063630198841210268270000017034589481211637164_"  style="overflow:visible;"/>
								</clipPath>
								<g style="clip-path:url(#SVGID_00000114788693118853246350000010468454793231860886_);">
								</g>
							</g>
						</g>
					</g>
				</g>
			</g>
		</g>
	</g>
	<g>
		<g>
			<defs>
				<rect id="SVGID_00000042700521342483227200000001209575483631540113_" x="1.6" y="7.5" width="16.7" height="11.8"/>
			</defs>
			<clipPath id="SVGID_00000182508914518109217800000012642491016203984564_">
				<use xlink:href="#SVGID_00000042700521342483227200000001209575483631540113_"  style="overflow:visible;"/>
			</clipPath>
			<g style="clip-path:url(#SVGID_00000182508914518109217800000012642491016203984564_);">
				<g>
					<defs>
						<path id="SVGID_00000168084592083902787700000004022282709976223880_" d="M18.2,13.3c-1.1-1.7-2.7-3.3-7.6-4.2
							C9.5,9,8.3,8.8,6.2,8.4c-0.8-0.1-3-0.5-2.7-0.9c-0.2,0.2,0,0.4,0.1,0.5c1.1,1.3,2.7,2,2.7,4.6c0,2.4-2.2,4.6-4.3,6.4
							c-0.1,0.1-0.2,0.2-0.3,0.3c2.6-1.6,4.2-2.2,6.2-3c2.5-1,7.6-2.4,10.5-2.8 M7.9,15.7c0-0.6-0.1-1-0.3-1.4
							c0.7-0.4,1.5-0.9,2.4-1.3C9.5,13.8,8.8,14.7,7.9,15.7C7.9,15.7,7.9,15.7,7.9,15.7 M8.2,9.2C8.2,9.2,8.2,9.2,8.2,9.2
							c0.2,0.6,0.3,1.3,0.2,2c-0.6-0.2-1.3-0.4-1.9-0.6C6.9,10.1,7.5,9.7,8.2,9.2 M10.1,12.5c-0.8,0.4-1.5,0.8-2.1,1.2
							c0.4-0.6,0.6-1.3,0.7-1.9C9.1,12,9.6,12.3,10.1,12.5 M9,11.4c0.7-0.5,1.6-1.1,2.5-1.6c-0.1,0.6-0.4,1.3-0.9,2.3
							C10.1,11.8,9.6,11.6,9,11.4 M6.5,13.4c0.3-0.3,0.9-0.9,1.8-1.5c-0.2,0.7-0.5,1.5-0.9,2.2C7.1,13.7,6.8,13.5,6.5,13.4 M7,14.4
							c-0.5,0.4-1,0.7-1.4,1.1c0.3-0.5,0.6-1,0.7-1.5C6.5,14.1,6.8,14.2,7,14.4 M8.1,11.6c-0.5,0.4-1,0.9-1.6,1.5
							c0.1-0.7,0-1.4-0.1-2C6.9,11.2,7.5,11.4,8.1,11.6 M6.8,14.9c-0.7,0.8-1.5,1.6-2.6,2.2c0.4-0.4,0.7-0.8,1-1.1
							C5.6,15.7,6.1,15.3,6.8,14.9 M7.3,14.7c0.3,0.4,0.4,0.7,0.4,1.1c-1.2,0.5-2.1,0.8-3,1.3C5.8,16.3,6.7,15.5,7.3,14.7
							 M10.7,12.9c0.6,0.4,1.2,0.9,1.8,1.4c-1.2,0.3-2.6,0.8-4.1,1.3C9.4,14.6,10.1,13.7,10.7,12.9 M11.2,12.5
							c1.2-0.5,2.5-1,3.9-1.4c-0.5,0.8-1.2,1.6-2.3,3.1l0,0c0,0,0,0,0,0l0,0C12.3,13.5,11.8,13,11.2,12.5 M14.9,10.9
							c-1.4,0.3-2.6,0.7-3.7,1.2c0.4-0.8,0.6-1.6,0.7-2.2c0.8,0.2,1.5,0.4,2.2,0.7C14.3,10.7,14.6,10.8,14.9,10.9 M11.3,9.7
							c-0.9,0.4-1.7,0.8-2.5,1.4c0-0.7-0.1-1.4-0.4-1.9C9.4,9.4,10.3,9.5,11.3,9.7 M8,9.1c-0.4,0.2-1.3,0.7-1.7,1.3
							C6,9.6,5.8,9,5.6,8.7C6.5,8.9,7.4,9,8,9.1 M4.2,8.3c0.3,0.1,0.8,0.2,1.3,0.4c0.2,0.6,0.4,1.1,0.5,1.6C5.5,9.5,4.9,8.8,4.2,8.3
							 M13.1,14.1c1.1-1,1.6-1.7,2.2-2.9c1.3,0.7,2.1,1.5,2.6,2c0,0,0.1,0.1,0.1,0.1C17.4,13.3,15.7,13.5,13.1,14.1"/>
					</defs>
					<clipPath id="SVGID_00000073707245812178787170000006454721884378133149_">
						<use xlink:href="#SVGID_00000168084592083902787700000004022282709976223880_"  style="overflow:visible;"/>
					</clipPath>
					<g style="clip-path:url(#SVGID_00000073707245812178787170000006454721884378133149_);">
						<g>
							<g>
								<defs>
									<rect id="SVGID_00000018229407080386781990000016252933377473239686_" x="1.6" y="7.5" width="16.7" height="11.8"/>
								</defs>
								
									<linearGradient id="SVGID_00000061435353701598910470000010950395167533813127_" gradientUnits="userSpaceOnUse" x1="4.6598" y1="20.9721" x2="15.2496" y2="5.7159">
									<stop  offset="5.589544e-04" style="stop-color:#145193"/>
									<stop  offset="0.5453" style="stop-color:#79BBE5"/>
									<stop  offset="0.55" style="stop-color:#78B9E3"/>
									<stop  offset="0.7643" style="stop-color:#396E97"/>
									<stop  offset="0.917" style="stop-color:#123F66"/>
									<stop  offset="0.9927" style="stop-color:#032D54"/>
								</linearGradient>
								
									<use xlink:href="#SVGID_00000018229407080386781990000016252933377473239686_"  style="overflow:visible;fill:url(#SVGID_00000061435353701598910470000010950395167533813127_);"/>
								<clipPath id="SVGID_00000018232073753433000270000008709910189397456319_">
									<use xlink:href="#SVGID_00000018229407080386781990000016252933377473239686_"  style="overflow:visible;"/>
								</clipPath>
								<g style="clip-path:url(#SVGID_00000018232073753433000270000008709910189397456319_);">
								</g>
							</g>
						</g>
					</g>
				</g>
			</g>
		</g>
	</g>
	<g>
		<path class="st0" d="M20.9,24.8l-1.5-4.6h0.6l0.7,2.2c0.2,0.6,0.4,1.2,0.5,1.7h0c0.1-0.5,0.3-1.1,0.5-1.7l0.8-2.3h0.6l-1.6,4.6
			H20.9z"/>
		<path class="st0" d="M24.2,20.6c0,0.2-0.1,0.4-0.4,0.4c-0.2,0-0.4-0.2-0.4-0.4c0-0.2,0.2-0.4,0.4-0.4
			C24.1,20.2,24.2,20.4,24.2,20.6z M23.6,24.8v-3.3h0.6v3.3H23.6z"/>
		<path class="st0" d="M25.2,22.5c0-0.4,0-0.7,0-1h0.5l0,0.6h0c0.1-0.4,0.5-0.7,0.9-0.7c0.1,0,0.1,0,0.2,0V22c-0.1,0-0.1,0-0.2,0
			c-0.4,0-0.7,0.3-0.8,0.8c0,0.1,0,0.2,0,0.3v1.7h-0.6V22.5z"/>
		<path class="st0" d="M28.3,20.6v0.9h0.9v0.5h-0.9v1.8c0,0.4,0.1,0.6,0.4,0.6c0.2,0,0.3,0,0.3,0l0,0.4c-0.1,0-0.3,0.1-0.5,0.1
			c-0.3,0-0.5-0.1-0.6-0.3c-0.2-0.2-0.2-0.5-0.2-0.9v-1.8h-0.5v-0.5h0.5v-0.8L28.3,20.6z"/>
		<path class="st0" d="M32.5,23.9c0,0.3,0,0.6,0,0.9H32l0-0.5h0c-0.2,0.3-0.5,0.6-1.1,0.6c-0.5,0-1.1-0.3-1.1-1.4v-1.9h0.6v1.8
			c0,0.6,0.2,1,0.7,1c0.4,0,0.7-0.3,0.8-0.5c0-0.1,0.1-0.2,0.1-0.3v-2h0.6V23.9z"/>
		<path class="st0" d="M35.3,24.8l0-0.4h0c-0.2,0.3-0.5,0.5-1,0.5c-0.7,0-1-0.5-1-0.9c0-0.8,0.7-1.2,2-1.2v-0.1
			c0-0.3-0.1-0.8-0.7-0.8c-0.3,0-0.6,0.1-0.9,0.2l-0.1-0.4c0.3-0.2,0.7-0.3,1.1-0.3c1,0,1.2,0.7,1.2,1.3V24c0,0.3,0,0.6,0.1,0.8
			H35.3z M35.2,23.1c-0.7,0-1.4,0.1-1.4,0.7c0,0.4,0.3,0.6,0.6,0.6c0.4,0,0.7-0.3,0.8-0.5c0-0.1,0-0.1,0-0.2V23.1z"/>
		<path class="st0" d="M36.8,20h0.6v4.8h-0.6V20z"/>
		<path class="st0" d="M43.7,22.8c0-0.6-0.1-1.4-0.1-2h0c-0.2,0.5-0.3,1.1-0.6,1.7l-0.8,2.2h-0.4L41,22.6c-0.2-0.6-0.4-1.2-0.5-1.8
			h0c0,0.6,0,1.3-0.1,2l-0.1,2h-0.6l0.3-4.6h0.8l0.8,2.2c0.2,0.6,0.3,1.1,0.5,1.5h0c0.1-0.5,0.3-1,0.5-1.5l0.8-2.2h0.8l0.3,4.6h-0.6
			L43.7,22.8z"/>
		<path class="st0" d="M47.1,24.8l0-0.4h0c-0.2,0.3-0.5,0.5-1,0.5c-0.7,0-1-0.5-1-0.9c0-0.8,0.7-1.2,2-1.2v-0.1
			c0-0.3-0.1-0.8-0.7-0.8c-0.3,0-0.6,0.1-0.9,0.2l-0.1-0.4c0.3-0.2,0.7-0.3,1.1-0.3c1,0,1.2,0.7,1.2,1.3V24c0,0.3,0,0.6,0.1,0.8
			H47.1z M47,23.1c-0.7,0-1.4,0.1-1.4,0.7c0,0.4,0.3,0.6,0.6,0.6c0.4,0,0.7-0.3,0.8-0.5c0-0.1,0-0.1,0-0.2V23.1z"/>
		<path class="st0" d="M50.9,24.6c-0.2,0.1-0.5,0.2-0.9,0.2c-1,0-1.6-0.7-1.6-1.7c0-1,0.7-1.7,1.8-1.7c0.4,0,0.7,0.1,0.8,0.2
			l-0.1,0.5c-0.1-0.1-0.4-0.2-0.7-0.2c-0.8,0-1.2,0.6-1.2,1.2c0,0.8,0.5,1.2,1.1,1.2c0.3,0,0.6-0.1,0.7-0.2L50.9,24.6z"/>
		<path class="st0" d="M51.6,20h0.6v2h0c0.1-0.2,0.2-0.3,0.4-0.4c0.2-0.1,0.4-0.2,0.6-0.2c0.4,0,1.1,0.3,1.1,1.4v2h-0.6v-1.9
			c0-0.5-0.2-1-0.8-1c-0.4,0-0.7,0.3-0.8,0.6c0,0.1,0,0.2,0,0.3v2h-0.6V20z"/>
		<path class="st0" d="M56,20.6c0,0.2-0.1,0.4-0.4,0.4c-0.2,0-0.4-0.2-0.4-0.4c0-0.2,0.2-0.4,0.4-0.4C55.9,20.2,56,20.4,56,20.6z
			 M55.4,24.8v-3.3H56v3.3H55.4z"/>
		<path class="st0" d="M56.9,22.4c0-0.3,0-0.6,0-0.9h0.5l0,0.5h0c0.2-0.3,0.5-0.6,1.1-0.6c0.5,0,1.2,0.3,1.2,1.4v2h-0.6v-1.9
			c0-0.5-0.2-1-0.8-1c-0.4,0-0.7,0.3-0.8,0.6c0,0.1,0,0.2,0,0.3v2h-0.6V22.4z"/>
		<path class="st0" d="M61,23.2c0,0.8,0.5,1.1,1.1,1.1c0.4,0,0.7-0.1,0.9-0.2l0.1,0.4c-0.2,0.1-0.6,0.2-1.1,0.2
			c-1,0-1.6-0.7-1.6-1.7c0-1,0.6-1.8,1.5-1.8c1.1,0,1.4,0.9,1.4,1.5c0,0.1,0,0.2,0,0.3H61z M62.8,22.8c0-0.4-0.2-1-0.8-1
			c-0.6,0-0.9,0.6-0.9,1H62.8z"/>
		<path class="st0" d="M69.4,22.8c0-0.6-0.1-1.4-0.1-2h0c-0.2,0.5-0.3,1.1-0.6,1.7l-0.8,2.2h-0.4l-0.7-2.2c-0.2-0.6-0.4-1.2-0.5-1.8
			h0c0,0.6,0,1.3-0.1,2l-0.1,2h-0.6l0.3-4.6h0.8l0.8,2.2c0.2,0.6,0.3,1.1,0.5,1.5h0c0.1-0.5,0.3-1,0.5-1.5l0.8-2.2h0.8l0.3,4.6h-0.6
			L69.4,22.8z"/>
		<path class="st0" d="M72.8,24.8l0-0.4h0c-0.2,0.3-0.5,0.5-1,0.5c-0.7,0-1-0.5-1-0.9c0-0.8,0.7-1.2,2-1.2v-0.1
			c0-0.3-0.1-0.8-0.7-0.8c-0.3,0-0.6,0.1-0.9,0.2L71,21.7c0.3-0.2,0.7-0.3,1.1-0.3c1,0,1.2,0.7,1.2,1.3V24c0,0.3,0,0.6,0.1,0.8H72.8
			z M72.7,23.1c-0.7,0-1.4,0.1-1.4,0.7c0,0.4,0.3,0.6,0.6,0.6c0.4,0,0.7-0.3,0.8-0.5c0-0.1,0-0.1,0-0.2V23.1z"/>
		<path class="st0" d="M74.3,22.4c0-0.3,0-0.6,0-0.9h0.5l0,0.5h0c0.2-0.3,0.5-0.6,1.1-0.6c0.5,0,1.2,0.3,1.2,1.4v2h-0.6v-1.9
			c0-0.5-0.2-1-0.8-1c-0.4,0-0.7,0.3-0.8,0.6c0,0.1,0,0.2,0,0.3v2h-0.6V22.4z"/>
		<path class="st0" d="M79.9,24.8l0-0.4h0c-0.2,0.3-0.5,0.5-1,0.5c-0.7,0-1-0.5-1-0.9c0-0.8,0.7-1.2,2-1.2v-0.1
			c0-0.3-0.1-0.8-0.7-0.8c-0.3,0-0.6,0.1-0.9,0.2L78,21.7c0.3-0.2,0.7-0.3,1.1-0.3c1,0,1.2,0.7,1.2,1.3V24c0,0.3,0,0.6,0.1,0.8H79.9
			z M79.8,23.1c-0.7,0-1.4,0.1-1.4,0.7c0,0.4,0.3,0.6,0.6,0.6c0.4,0,0.7-0.3,0.8-0.5c0-0.1,0-0.1,0-0.2V23.1z"/>
		<path class="st0" d="M84.1,21.5c0,0.2,0,0.5,0,0.9v1.9c0,0.8-0.1,1.2-0.5,1.5c-0.3,0.3-0.8,0.4-1.2,0.4c-0.4,0-0.8-0.1-1.1-0.3
			l0.1-0.5c0.2,0.1,0.6,0.3,1,0.3c0.6,0,1.1-0.3,1.1-1.1v-0.4h0c-0.2,0.3-0.5,0.5-1,0.5c-0.8,0-1.4-0.7-1.4-1.6
			c0-1.1,0.7-1.7,1.5-1.7c0.6,0,0.9,0.3,1,0.6h0l0-0.5H84.1z M83.5,22.8c0-0.1,0-0.2,0-0.3c-0.1-0.3-0.4-0.6-0.8-0.6
			c-0.6,0-1,0.5-1,1.2c0,0.6,0.3,1.2,1,1.2c0.4,0,0.7-0.2,0.8-0.6c0-0.1,0-0.2,0-0.3V22.8z"/>
		<path class="st0" d="M85.4,23.2c0,0.8,0.5,1.1,1.1,1.1c0.4,0,0.7-0.1,0.9-0.2l0.1,0.4c-0.2,0.1-0.6,0.2-1.1,0.2
			c-1,0-1.6-0.7-1.6-1.7c0-1,0.6-1.8,1.5-1.8c1.1,0,1.4,0.9,1.4,1.5c0,0.1,0,0.2,0,0.3H85.4z M87.2,22.8c0-0.4-0.2-1-0.8-1
			c-0.6,0-0.9,0.6-0.9,1H87.2z"/>
		<path class="st0" d="M88.5,22.5c0-0.4,0-0.7,0-1H89l0,0.6h0c0.1-0.4,0.5-0.7,0.9-0.7c0.1,0,0.1,0,0.2,0V22c-0.1,0-0.1,0-0.2,0
			c-0.4,0-0.7,0.3-0.8,0.8c0,0.1,0,0.2,0,0.3v1.7h-0.6V22.5z"/>
	</g>
</g>
</svg>
